<svg width="100" height="100" viewBox="0 0 100 100" fill="none" xmlns="http://www.w3.org/2000/svg">
<path d="M52.4305 5.55566C64.8626 5.55566 76.7854 10.4943 85.5762 19.285C94.3669 28.0758 99.3055 39.9986 99.3055 52.4307C99.3055 64.8627 94.3669 76.7855 85.5762 85.5763C76.7854 94.3671 64.8626 99.3057 52.4305 99.3057C39.9985 99.3057 28.0757 94.3671 19.2849 85.5763C10.4941 76.7855 5.55554 64.8627 5.55554 52.4307C5.55554 39.9986 10.4941 28.0758 19.2849 19.285C28.0757 10.4943 39.9985 5.55566 52.4305 5.55566ZM52.4305 92.6092C63.0866 92.6092 73.3061 88.3761 80.8411 80.8412C88.376 73.3063 92.6091 63.0867 92.6091 52.4307C92.6091 41.7746 88.376 31.5551 80.8411 24.0201C73.3061 16.4852 63.0866 12.2521 52.4305 12.2521C41.7745 12.2521 31.5549 16.4852 24.02 24.0201C16.4851 31.5551 12.252 41.7746 12.252 52.4307C12.252 63.0867 16.4851 73.3063 24.02 80.8412C31.5549 88.3761 41.7745 92.6092 52.4305 92.6092ZM45.9201 66.7007L67.3286 52.4307L45.9201 38.1606V66.7007ZM47.0317 30.8481L73.1344 48.2521C73.8223 48.7107 74.3862 49.3321 74.7763 50.061C75.1664 50.79 75.3705 51.6039 75.3705 52.4307C75.3705 53.2574 75.1664 54.0714 74.7763 54.8003C74.3862 55.5292 73.8223 56.1506 73.1344 56.6092L47.0317 74.0133C46.2754 74.5174 45.3964 74.8069 44.4885 74.8508C43.5805 74.8947 42.6777 74.6913 41.8763 74.2624C41.0748 73.8335 40.4048 73.1951 39.9377 72.4154C39.4705 71.6356 39.2238 70.7437 39.2237 69.8347V35.02C39.2238 34.111 39.4705 33.219 39.9377 32.4393C40.4048 31.6595 41.0748 31.0211 41.8763 30.5922C42.6777 30.1633 43.5805 29.96 44.4885 30.0038C45.3964 30.0477 46.2754 30.3372 47.0317 30.8414V30.8481Z" fill="#16171C"/>
</svg>
