<svg width="316" height="24" viewBox="0 0 316 24" fill="none" xmlns="http://www.w3.org/2000/svg">
<path d="M22.54 6.42C22.4212 5.94541 22.1793 5.51057 21.8386 5.15941C21.498 4.80824 21.0707 4.55318 20.6 4.42C18.88 4 12 4 12 4C12 4 5.11999 4 3.39999 4.46C2.92924 4.59318 2.50197 4.84824 2.16134 5.19941C1.82071 5.55057 1.57878 5.98541 1.45999 6.46C1.14521 8.20556 0.991228 9.97631 0.999992 11.75C0.988771 13.537 1.14276 15.3213 1.45999 17.08C1.59095 17.5398 1.8383 17.9581 2.17814 18.2945C2.51797 18.6308 2.93881 18.8738 3.39999 19C5.11999 19.46 12 19.46 12 19.46C12 19.46 18.88 19.46 20.6 19C21.0707 18.8668 21.498 18.6118 21.8386 18.2606C22.1793 17.9094 22.4212 17.4746 22.54 17C22.8524 15.2676 23.0063 13.5103 23 11.75C23.0112 9.96295 22.8572 8.1787 22.54 6.42V6.42Z" stroke="#FFFEEB" stroke-width="2" stroke-linecap="round" stroke-linejoin="round"/>
<path d="M9.75 15.02L15.5 11.75L9.75 8.48V15.02Z" stroke="#FFFEEB" stroke-width="2" stroke-linecap="round" stroke-linejoin="round"/>
<path d="M91 2H88C86.6739 2 85.4021 2.52678 84.4645 3.46447C83.5268 4.40215 83 5.67392 83 7V10H80V14H83V22H87V14H90L91 10H87V7C87 6.73478 87.1054 6.48043 87.2929 6.29289C87.4804 6.10536 87.7348 6 88 6H91V2Z" stroke="#FFFEEB" stroke-width="2" stroke-linecap="round" stroke-linejoin="round"/>
<path d="M163 2H153C150.239 2 148 4.23858 148 7V17C148 19.7614 150.239 22 153 22H163C165.761 22 168 19.7614 168 17V7C168 4.23858 165.761 2 163 2Z" stroke="#FFFEEB" stroke-width="2" stroke-linecap="round" stroke-linejoin="round"/>
<path d="M162 11.37C162.123 12.2022 161.981 13.0522 161.594 13.799C161.206 14.5458 160.593 15.1514 159.842 15.5297C159.09 15.9079 158.238 16.0396 157.408 15.9059C156.577 15.7723 155.81 15.3801 155.215 14.7852C154.62 14.1902 154.228 13.4229 154.094 12.5922C153.96 11.7615 154.092 10.9099 154.47 10.1584C154.849 9.40685 155.454 8.79374 156.201 8.40624C156.948 8.01874 157.798 7.87658 158.63 8C159.479 8.12588 160.265 8.52146 160.872 9.1283C161.479 9.73515 161.874 10.5211 162 11.37Z" stroke="#FFFEEB" stroke-width="2" stroke-linecap="round" stroke-linejoin="round"/>
<path d="M163.5 6.5H163.51" stroke="#FFFEEB" stroke-width="2" stroke-linecap="round" stroke-linejoin="round"/>
<path d="M242 3C241.042 3.67548 239.982 4.19211 238.86 4.53C238.258 3.83751 237.457 3.34669 236.567 3.12393C235.677 2.90116 234.739 2.9572 233.882 3.28445C233.025 3.61171 232.288 4.1944 231.773 4.95372C231.258 5.71303 230.988 6.61234 231 7.53V8.53C229.243 8.57557 227.501 8.18581 225.931 7.39545C224.361 6.60508 223.01 5.43864 222 4C222 4 218 13 227 17C224.941 18.398 222.487 19.0989 220 19C229 24 240 19 240 7.5C239.999 7.22145 239.972 6.94359 239.92 6.67C240.941 5.66349 241.661 4.39271 242 3V3Z" stroke="#FFFEEB" stroke-width="2" stroke-linecap="round" stroke-linejoin="round"/>
<path d="M314 2L303 13" stroke="#FFFEEB" stroke-width="2" stroke-linecap="round" stroke-linejoin="round"/>
<path d="M314 2L307 22L303 13L294 9L314 2Z" stroke="#FFFEEB" stroke-width="2" stroke-linecap="round" stroke-linejoin="round"/>
</svg>
