<svg width="316" height="24" viewBox="0 0 316 24" fill="none" xmlns="http://www.w3.org/2000/svg">
<path d="M22.5401 6.42C22.4213 5.94541 22.1794 5.51057 21.8387 5.15941C21.4981 4.80824 21.0708 4.55318 20.6001 4.42C18.8801 4 12.0001 4 12.0001 4C12.0001 4 5.12008 4 3.40008 4.46C2.92933 4.59318 2.50206 4.84824 2.16143 5.19941C1.8208 5.55057 1.57887 5.98541 1.46008 6.46C1.1453 8.20556 0.991319 9.97631 1.00008 11.75C0.988863 13.537 1.14285 15.3213 1.46008 17.08C1.59104 17.5398 1.83839 17.9581 2.17823 18.2945C2.51806 18.6308 2.9389 18.8738 3.40008 19C5.12008 19.46 12.0001 19.46 12.0001 19.46C12.0001 19.46 18.8801 19.46 20.6001 19C21.0708 18.8668 21.4981 18.6118 21.8387 18.2606C22.1794 17.9094 22.4213 17.4746 22.5401 17C22.8524 15.2676 23.0064 13.5103 23.0001 11.75C23.0113 9.96295 22.8573 8.1787 22.5401 6.42V6.42Z" stroke="#FFFEEB" stroke-width="2" stroke-linecap="round" stroke-linejoin="round"/>
<path d="M9.75 15.02L15.5 11.75L9.75 8.47998V15.02Z" stroke="#FFFEEB" stroke-width="2" stroke-linecap="round" stroke-linejoin="round"/>
<path d="M91 2H88C86.6739 2 85.4021 2.52678 84.4645 3.46447C83.5268 4.40215 83 5.67392 83 7V10H80V14H83V22H87V14H90L91 10H87V7C87 6.73478 87.1054 6.48043 87.2929 6.29289C87.4804 6.10536 87.7348 6 88 6H91V2Z" stroke="#FFFEEB" stroke-width="2" stroke-linecap="round" stroke-linejoin="round"/>
<path d="M163 2H153C150.239 2 148 4.23858 148 7V17C148 19.7614 150.239 22 153 22H163C165.761 22 168 19.7614 168 17V7C168 4.23858 165.761 2 163 2Z" stroke="#FFFEEB" stroke-width="2" stroke-linecap="round" stroke-linejoin="round"/>
<path d="M162 11.3701C162.123 12.2023 161.981 13.0523 161.594 13.7991C161.206 14.5459 160.593 15.1515 159.842 15.5297C159.09 15.908 158.238 16.0397 157.408 15.906C156.577 15.7723 155.81 15.3801 155.215 14.7852C154.62 14.1903 154.228 13.4229 154.094 12.5923C153.96 11.7616 154.092 10.91 154.47 10.1584C154.849 9.40691 155.454 8.7938 156.201 8.4063C156.948 8.0188 157.798 7.87665 158.63 8.00006C159.479 8.12594 160.265 8.52152 160.872 9.12836C161.478 9.73521 161.874 10.5211 162 11.3701Z" stroke="#FFFEEB" stroke-width="2" stroke-linecap="round" stroke-linejoin="round"/>
<path d="M163.5 6.5H163.51" stroke="#FFFEEB" stroke-width="2" stroke-linecap="round" stroke-linejoin="round"/>
<path d="M242 3.00005C241.042 3.67552 239.982 4.19216 238.86 4.53005C238.258 3.83756 237.457 3.34674 236.567 3.12397C235.677 2.90121 234.739 2.95724 233.882 3.2845C233.025 3.61176 232.288 4.19445 231.773 4.95376C231.258 5.71308 230.988 6.61238 231 7.53005V8.53005C229.243 8.57561 227.501 8.18586 225.931 7.39549C224.361 6.60513 223.01 5.43868 222 4.00005C222 4.00005 218 13 227 17C224.941 18.398 222.487 19.099 220 19C229 24 240 19 240 7.50005C239.999 7.2215 239.972 6.94364 239.92 6.67005C240.941 5.66354 241.661 4.39276 242 3.00005V3.00005Z" stroke="#FFFEEB" stroke-width="2" stroke-linecap="round" stroke-linejoin="round"/>
<path d="M314 2L303 13" stroke="#FFFEEB" stroke-width="2" stroke-linecap="round" stroke-linejoin="round"/>
<path d="M314 2L307 22L303 13L294 9L314 2Z" stroke="#FFFEEB" stroke-width="2" stroke-linecap="round" stroke-linejoin="round"/>
</svg>
