<svg width="318" height="24" viewBox="0 0 318 24" fill="none" xmlns="http://www.w3.org/2000/svg">
<g clip-path="url(#clip0_231_596)">
<path fill-rule="evenodd" clip-rule="evenodd" d="M12 4C12 3 11.9999 3 11.9998 3H11.9995H11.9984L11.9944 3L11.9791 3.00001L11.9201 3.00011C11.8685 3.00023 11.7929 3.00046 11.6963 3.00091C11.5031 3.00182 11.2256 3.00363 10.8874 3.00724C10.2114 3.01448 9.29099 3.02895 8.31526 3.05794C7.34113 3.08689 6.30386 3.13054 5.39659 3.19671C4.51729 3.26085 3.67525 3.35123 3.1416 3.49395L3.12773 3.49777C2.48764 3.67886 1.90668 4.02566 1.44352 4.50315C0.980357 4.98063 0.651405 5.57189 0.489887 6.21719C0.484476 6.23881 0.47979 6.2606 0.475836 6.28253C0.150527 8.08643 -0.00876796 9.91636 -5.36995e-05 11.7493C-0.0113041 13.5961 0.148004 15.44 0.475843 17.2575C0.481701 17.29 0.489164 17.3222 0.498203 17.3539C0.676269 17.9792 1.01259 18.5479 1.47467 19.0052C1.93675 19.4626 2.50897 19.793 3.13604 19.9645L3.13604 19.9646L3.1416 19.966C3.67525 20.1088 4.51729 20.1992 5.39659 20.2633C6.30386 20.3295 7.34113 20.3731 8.31526 20.4021C9.29099 20.4311 10.2114 20.4455 10.8874 20.4528C11.2256 20.4564 11.5031 20.4582 11.6963 20.4591C11.7929 20.4595 11.8685 20.4598 11.9201 20.4599L11.9791 20.46L11.9944 20.46H11.9984H11.9995L11.9998 20.46C11.9999 20.46 12 20.46 12 19.46C12 20.46 12 20.46 12.0001 20.46L12.0004 20.46H12.0015H12.0055L12.0208 20.46L12.0799 20.4599C12.1314 20.4598 12.207 20.4595 12.3036 20.4591C12.4969 20.4582 12.7743 20.4564 13.1125 20.4528C13.7885 20.4455 14.7089 20.4311 15.6847 20.4021C16.6588 20.3731 17.6961 20.3295 18.6033 20.2633C19.4826 20.1992 20.3247 20.1088 20.8583 19.966L20.8722 19.9622C21.5123 19.7811 22.0932 19.4343 22.5564 18.9569C23.0196 18.4794 23.3485 17.8881 23.51 17.2428C23.5154 17.2212 23.5201 17.1994 23.5241 17.1774C23.8469 15.3869 24.0062 13.5707 24 11.7513C24.0113 9.90432 23.852 8.06021 23.5241 6.24249L22.54 6.42L23.51 6.17719C23.3485 5.53189 23.0196 4.94063 22.5564 4.46315C22.0932 3.98566 21.5123 3.63886 20.8722 3.45777C20.8606 3.45448 20.8489 3.45141 20.8372 3.44854C20.3115 3.32017 19.4767 3.23798 18.597 3.1794C17.6915 3.11909 16.6556 3.07928 15.6821 3.05287C14.7071 3.02641 13.7872 3.01321 13.1116 3.00661C12.7736 3.00331 12.4963 3.00166 12.3032 3.00083C12.2067 3.00042 12.1312 3.00021 12.0797 3.0001L12.0207 3.00001L12.0054 3H12.0015H12.0004H12.0001C12 3 12 3 12 4ZM12 4L12 5H12.0002H12.001L12.0045 5L12.0188 5.00001L12.0756 5.0001L12.2947 5.00081C12.4846 5.00162 12.7582 5.00325 13.0921 5.00651C13.7602 5.01304 14.6679 5.02609 15.6278 5.05213C16.5893 5.07822 17.5959 5.11716 18.4641 5.17498C19.3426 5.23348 20.0049 5.3072 20.3449 5.38717C20.6395 5.47373 20.9069 5.63509 21.1208 5.85566C21.332 6.07333 21.4839 6.3412 21.5624 6.63377C21.8642 8.32008 22.0107 10.0306 22 11.7437H21.9999L22 11.7536C22.006 13.4409 21.8596 15.1253 21.5624 16.7863C21.4839 17.0788 21.332 17.3467 21.1208 17.5643C20.9044 17.7875 20.6333 17.95 20.3346 18.0358C20.0058 18.1224 19.346 18.2038 18.4578 18.2686C17.5914 18.3318 16.5861 18.3744 15.6253 18.4029C14.666 18.4314 13.7589 18.4457 13.0911 18.4529C12.7575 18.4564 12.484 18.4582 12.2943 18.4591C12.1994 18.4596 12.1255 18.4598 12.0754 18.4599L12.0187 18.46L12.0044 18.46L12.001 18.46H12.0001H11.9999H11.9998H11.999L11.9955 18.46L11.9812 18.46L11.9245 18.4599C11.8745 18.4598 11.8005 18.4596 11.7057 18.4591C11.5159 18.4582 11.2425 18.4564 10.9088 18.4529C10.241 18.4457 9.33394 18.4314 8.37466 18.4029C7.41379 18.3744 6.40856 18.3318 5.54208 18.2686C4.65016 18.2035 3.98842 18.1217 3.6611 18.0347C3.3669 17.9537 3.09845 17.7984 2.88154 17.5837C2.67449 17.3788 2.52106 17.1264 2.43444 16.8487C2.13467 15.1681 1.98922 13.4635 1.99994 11.7563H2L1.99995 11.7451C1.99155 10.0448 2.13803 8.34737 2.43757 6.67375C2.51606 6.38119 2.66797 6.11332 2.8791 5.89566C3.09554 5.67253 3.36661 5.51 3.66531 5.42419C3.99408 5.3376 4.65397 5.25619 5.54208 5.19141C6.40856 5.12821 7.41379 5.08561 8.37466 5.05706C9.33394 5.02855 10.241 5.01427 10.9088 5.00713C11.2425 5.00356 11.5159 5.00178 11.7057 5.00089C11.8005 5.00044 11.8745 5.00022 11.9245 5.00011L11.9812 5.00001L11.9955 5L11.999 5L11.9998 5H11.9999L12 4ZM10.2443 7.61072C9.9348 7.43468 9.55499 7.43653 9.24718 7.61559C8.93937 7.79464 8.75 8.12388 8.75 8.47998V15.02C8.75 15.3761 8.93937 15.7053 9.24718 15.8844C9.55499 16.0634 9.9348 16.0653 10.2443 15.8892L15.9943 12.6192C16.3069 12.4415 16.5 12.1096 16.5 11.75C16.5 11.3904 16.3069 11.0585 15.9943 10.8807L10.2443 7.61072ZM13.4771 11.75L10.75 13.3009V10.1991L13.4771 11.75Z" fill="#FFFEEB"/>
</g>
<path d="M91.5 2H88.5C87.1739 2 85.9021 2.52678 84.9645 3.46447C84.0268 4.40215 83.5 5.67392 83.5 7V10H80.5V14H83.5V22H87.5V14H90.5L91.5 10H87.5V7C87.5 6.73478 87.6054 6.48043 87.7929 6.29289C87.9804 6.10536 88.2348 6 88.5 6H91.5V2Z" stroke="#FFFEEB" stroke-width="2" stroke-linecap="round" stroke-linejoin="round"/>
<path fill-rule="evenodd" clip-rule="evenodd" d="M154 3C151.791 3 150 4.79086 150 7V17C150 19.2091 151.791 21 154 21H164C166.209 21 168 19.2091 168 17V7C168 4.79086 166.209 3 164 3H154ZM148 7C148 3.68629 150.686 1 154 1H164C167.314 1 170 3.68629 170 7V17C170 20.3137 167.314 23 164 23H154C150.686 23 148 20.3137 148 17V7ZM159.483 8.98924C158.859 8.89668 158.222 9.0033 157.662 9.29392C157.101 9.58455 156.647 10.0444 156.364 10.608C156.08 11.1717 155.981 11.8104 156.081 12.4334C156.182 13.0564 156.476 13.6319 156.922 14.0781C157.368 14.5243 157.944 14.8184 158.567 14.9187C159.19 15.0189 159.828 14.9202 160.392 14.6365C160.956 14.3528 161.415 13.8986 161.706 13.3385C161.997 12.7784 162.103 12.1409 162.011 11.5167C161.916 10.88 161.62 10.2906 161.165 9.83547C160.709 9.38034 160.12 9.08365 159.483 8.98924ZM156.74 7.51868C157.674 7.0343 158.736 6.85661 159.777 7.01087C160.838 7.16823 161.82 7.6627 162.579 8.42126C163.337 9.17981 163.832 10.1622 163.989 11.2234C164.143 12.2637 163.966 13.3261 163.481 14.2596C162.997 15.1931 162.231 15.9501 161.291 16.423C160.352 16.8958 159.287 17.0604 158.249 16.8933C157.211 16.7262 156.251 16.236 155.508 15.4923C154.764 14.7487 154.274 13.7895 154.107 12.7511C153.94 11.7128 154.104 10.6482 154.577 9.70884C155.05 8.76944 155.807 8.00305 156.74 7.51868ZM164.5 5.5C163.948 5.5 163.5 5.94772 163.5 6.5C163.5 7.05228 163.948 7.5 164.5 7.5H164.51C165.062 7.5 165.51 7.05228 165.51 6.5C165.51 5.94772 165.062 5.5 164.51 5.5H164.5Z" fill="#FFFEEB"/>
<g clip-path="url(#clip1_231_596)">
<path d="M243.5 3.00005C242.542 3.67552 241.482 4.19216 240.36 4.53005C239.758 3.83756 238.957 3.34674 238.067 3.12397C237.177 2.90121 236.239 2.95724 235.382 3.2845C234.525 3.61176 233.788 4.19445 233.273 4.95376C232.758 5.71308 232.488 6.61238 232.5 7.53005V8.53005C230.743 8.57561 229.001 8.18586 227.431 7.39549C225.861 6.60513 224.51 5.43868 223.5 4.00005C223.5 4.00005 219.5 13 228.5 17C226.441 18.398 223.987 19.099 221.5 19C230.5 24 241.5 19 241.5 7.50005C241.499 7.2215 241.472 6.94364 241.42 6.67005C242.441 5.66354 243.161 4.39276 243.5 3.00005V3.00005Z" stroke="#FFFEEB" stroke-width="2" stroke-linecap="round" stroke-linejoin="round"/>
</g>
<path fill-rule="evenodd" clip-rule="evenodd" d="M316.707 1.29292C316.931 1.5164 317.026 1.81935 316.994 2.11081C316.985 2.19253 316.966 2.27334 316.937 2.35125L309.944 22.3304C309.808 22.7174 309.45 22.9825 309.041 22.9992C308.631 23.0159 308.253 22.7808 308.086 22.4062L304.242 13.7576L295.594 9.91384C295.219 9.74731 294.984 9.36894 295.001 8.95926C295.018 8.54959 295.283 8.19162 295.67 8.05617L315.649 1.06347C315.727 1.03413 315.808 1.01497 315.891 1.00598C315.951 0.999346 316.012 0.998265 316.071 1.00257C316.303 1.01907 316.53 1.11585 316.707 1.29292ZM312.194 4.3915L298.711 9.11063L304.779 11.8073L312.194 4.3915ZM306.193 13.2215L313.609 5.80571L308.889 19.289L306.193 13.2215Z" fill="#FFFEEB"/>
<defs>
<clipPath id="clip0_231_596">
<rect width="24" height="24" fill="white"/>
</clipPath>
<clipPath id="clip1_231_596">
<rect width="24" height="24" fill="white" transform="translate(220.5)"/>
</clipPath>
</defs>
</svg>
