<svg width="348" height="120" viewBox="0 0 348 120" fill="none" xmlns="http://www.w3.org/2000/svg">
<g clip-path="url(#clip0_301_152)">
<path fill-rule="evenodd" clip-rule="evenodd" d="M27.9996 20C27.9996 19 27.9995 19 27.9995 19H27.9991H27.9981L27.9941 19L27.9787 19L27.9197 19.0001C27.8681 19.0002 27.7925 19.0005 27.6959 19.0009C27.5027 19.0018 27.2252 19.0036 26.887 19.0072C26.211 19.0145 25.2906 19.0289 24.3149 19.0579C23.3408 19.0869 22.3035 19.1305 21.3962 19.1967C20.5169 19.2608 19.6749 19.3512 19.1412 19.494L19.1274 19.4978C18.4873 19.6789 17.9063 20.0257 17.4432 20.5031C16.98 20.9806 16.651 21.5719 16.4895 22.2172C16.4841 22.2388 16.4794 22.2606 16.4755 22.2825C16.1502 24.0864 15.9909 25.9164 15.9996 27.7493C15.9883 29.5961 16.1476 31.44 16.4755 33.2575C16.4813 33.29 16.4888 33.3222 16.4978 33.3539C16.6759 33.9792 17.0122 34.5479 17.4743 35.0052C17.9364 35.4626 18.5086 35.793 19.1357 35.9645L19.1357 35.9646L19.1412 35.966C19.6749 36.1088 20.5169 36.1992 21.3962 36.2633C22.3035 36.3295 23.3408 36.3731 24.3149 36.4021C25.2906 36.4311 26.211 36.4455 26.887 36.4528C27.2252 36.4564 27.5027 36.4582 27.6959 36.4591C27.7925 36.4595 27.8681 36.4598 27.9197 36.4599L27.9787 36.46L27.9941 36.46H27.9981H27.9991L27.9995 36.46C27.9995 36.46 27.9996 36.46 27.9996 35.46C27.9996 36.46 27.9997 36.46 27.9997 36.46L28 36.46H28.0011H28.0051L28.0205 36.46L28.0795 36.4599C28.1311 36.4598 28.2067 36.4595 28.3033 36.4591C28.4965 36.4582 28.774 36.4564 29.1122 36.4528C29.7881 36.4455 30.7086 36.4311 31.6843 36.4021C32.6584 36.3731 33.6957 36.3295 34.603 36.2633C35.4823 36.1992 36.3243 36.1088 36.858 35.966L36.8718 35.9622C37.5119 35.7811 38.0929 35.4343 38.556 34.9569C39.0192 34.4794 39.3482 33.8881 39.5097 33.2428C39.5151 33.2212 39.5198 33.1994 39.5237 33.1774C39.8466 31.3869 40.0058 29.5707 39.9996 27.7513C40.0109 25.9043 39.8516 24.0602 39.5237 22.2425L38.5396 22.42L39.5097 22.1772C39.3482 21.5319 39.0192 20.9406 38.556 20.4631C38.0929 19.9857 37.5119 19.6389 36.8718 19.4578C36.8602 19.4545 36.8485 19.4514 36.8368 19.4485C36.3111 19.3202 35.4763 19.238 34.5967 19.1794C33.6912 19.1191 32.6553 19.0793 31.6817 19.0529C30.7067 19.0264 29.7869 19.0132 29.1112 19.0066C28.7732 19.0033 28.4959 19.0017 28.3029 19.0008C28.2063 19.0004 28.1308 19.0002 28.0793 19.0001L28.0204 19L28.0051 19H28.0011H28H27.9997C27.9997 19 27.9996 19 27.9996 20ZM27.9996 20L27.9996 21H27.9998H28.0006L28.0041 21L28.0184 21L28.0753 21.0001L28.2943 21.0008C28.4842 21.0016 28.7578 21.0033 29.0917 21.0065C29.7598 21.013 30.6675 21.0261 31.6275 21.0521C32.5889 21.0782 33.5955 21.1172 34.4638 21.175C35.3422 21.2335 36.0046 21.3072 36.3445 21.3872C36.6391 21.4737 36.9065 21.6351 37.1205 21.8557C37.3316 22.0733 37.4835 22.3412 37.562 22.6338C37.8639 24.3201 38.0104 26.0306 37.9996 27.7437H37.9996L37.9996 27.7536C38.0057 29.4409 37.8592 31.1253 37.562 32.7863C37.4835 33.0788 37.3316 33.3467 37.1205 33.5643C36.904 33.7875 36.6329 33.95 36.3342 34.0358C36.0055 34.1224 35.3456 34.2038 34.4575 34.2686C33.591 34.3318 32.5858 34.3744 31.6249 34.4029C30.6656 34.4314 29.7585 34.4457 29.0908 34.4529C28.7571 34.4564 28.4836 34.4582 28.2939 34.4591C28.199 34.4596 28.1251 34.4598 28.0751 34.4599L28.0183 34.46L28.0041 34.46L28.0006 34.46H27.9998H27.9996H27.9994H27.9986L27.9951 34.46L27.9809 34.46L27.9241 34.4599C27.8741 34.4598 27.8002 34.4596 27.7053 34.4591C27.5155 34.4582 27.2421 34.4564 26.9084 34.4529C26.2407 34.4457 25.3336 34.4314 24.3743 34.4029C23.4134 34.3744 22.4082 34.3318 21.5417 34.2686C20.6498 34.2035 19.9881 34.1217 19.6607 34.0347C19.3665 33.9537 19.0981 33.7984 18.8812 33.5837C18.6741 33.3788 18.5207 33.1264 18.4341 32.8487C18.1343 31.1681 17.9889 29.4635 17.9996 27.7563H17.9996L17.9996 27.7451C17.9912 26.0448 18.1377 24.3474 18.4372 22.6738C18.5157 22.3812 18.6676 22.1133 18.8787 21.8957C19.0952 21.6725 19.3662 21.51 19.6649 21.4242C19.9937 21.3376 20.6536 21.2562 21.5417 21.1914C22.4082 21.1282 23.4134 21.0856 24.3743 21.0571C25.3336 21.0286 26.2407 21.0143 26.9084 21.0071C27.2421 21.0036 27.5155 21.0018 27.7053 21.0009C27.8002 21.0004 27.8741 21.0002 27.9241 21.0001L27.9809 21L27.9951 21L27.9986 21L27.9994 21H27.9996L27.9996 20ZM26.244 23.6107C25.9344 23.4347 25.5546 23.4365 25.2468 23.6156C24.939 23.7946 24.7496 24.1239 24.7496 24.48V31.02C24.7496 31.3761 24.939 31.7053 25.2468 31.8844C25.5546 32.0634 25.9344 32.0653 26.244 31.8892L31.994 28.6192C32.3066 28.4415 32.4996 28.1096 32.4996 27.75C32.4996 27.3904 32.3066 27.0585 31.994 26.8807L26.244 23.6107ZM29.4768 27.75L26.7496 29.3009V26.1991L29.4768 27.75Z" fill="#FFFEEB"/>
</g>
<g clip-path="url(#clip1_301_152)">
<path fill-rule="evenodd" clip-rule="evenodd" d="M27.9996 84C27.9996 83 27.9995 83 27.9995 83H27.9991H27.9981L27.9941 83L27.9787 83L27.9197 83.0001C27.8681 83.0002 27.7925 83.0005 27.6959 83.0009C27.5027 83.0018 27.2252 83.0036 26.887 83.0072C26.211 83.0145 25.2906 83.0289 24.3149 83.0579C23.3408 83.0869 22.3035 83.1305 21.3962 83.1967C20.5169 83.2608 19.6749 83.3512 19.1412 83.494L19.1274 83.4978C18.4873 83.6789 17.9063 84.0257 17.4432 84.5031C16.98 84.9806 16.651 85.5719 16.4895 86.2172C16.4841 86.2388 16.4794 86.2606 16.4755 86.2825C16.1502 88.0864 15.9909 89.9164 15.9996 91.7493C15.9883 93.5961 16.1476 95.44 16.4755 97.2575C16.4813 97.29 16.4888 97.3222 16.4978 97.3539C16.6759 97.9792 17.0122 98.5479 17.4743 99.0052C17.9364 99.4626 18.5086 99.793 19.1357 99.9645L19.1357 99.9646L19.1412 99.966C19.6749 100.109 20.5169 100.199 21.3962 100.263C22.3035 100.329 23.3408 100.373 24.3149 100.402C25.2906 100.431 26.211 100.446 26.887 100.453C27.2252 100.456 27.5027 100.458 27.6959 100.459C27.7925 100.46 27.8681 100.46 27.9197 100.46L27.9787 100.46L27.9941 100.46H27.9981H27.9991L27.9995 100.46C27.9995 100.46 27.9996 100.46 27.9996 99.46C27.9996 100.46 27.9997 100.46 27.9997 100.46L28 100.46H28.0011H28.0051L28.0205 100.46L28.0795 100.46C28.1311 100.46 28.2067 100.46 28.3033 100.459C28.4965 100.458 28.774 100.456 29.1122 100.453C29.7881 100.446 30.7086 100.431 31.6843 100.402C32.6584 100.373 33.6957 100.329 34.603 100.263C35.4823 100.199 36.3243 100.109 36.858 99.966L36.8718 99.9622C37.5119 99.7811 38.0929 99.4343 38.556 98.9569C39.0192 98.4794 39.3482 97.8881 39.5097 97.2428C39.5151 97.2212 39.5198 97.1994 39.5237 97.1774C39.8466 95.3869 40.0058 93.5707 39.9996 91.7513C40.0109 89.9043 39.8516 88.0602 39.5237 86.2425L38.5396 86.42L39.5097 86.1772C39.3482 85.5319 39.0192 84.9406 38.556 84.4631C38.0929 83.9857 37.5119 83.6389 36.8718 83.4578C36.8602 83.4545 36.8485 83.4514 36.8368 83.4485C36.3111 83.3202 35.4763 83.238 34.5967 83.1794C33.6912 83.1191 32.6553 83.0793 31.6817 83.0529C30.7067 83.0264 29.7869 83.0132 29.1112 83.0066C28.7732 83.0033 28.4959 83.0017 28.3029 83.0008C28.2063 83.0004 28.1308 83.0002 28.0793 83.0001L28.0204 83L28.0051 83H28.0011H28H27.9997C27.9997 83 27.9996 83 27.9996 84ZM27.9996 84L27.9996 85H27.9998H28.0006L28.0041 85L28.0184 85L28.0753 85.0001L28.2943 85.0008C28.4842 85.0016 28.7578 85.0033 29.0917 85.0065C29.7598 85.013 30.6675 85.0261 31.6275 85.0521C32.5889 85.0782 33.5955 85.1172 34.4638 85.175C35.3422 85.2335 36.0046 85.3072 36.3445 85.3872C36.6391 85.4737 36.9065 85.6351 37.1205 85.8557C37.3316 86.0733 37.4835 86.3412 37.562 86.6338C37.8639 88.3201 38.0104 90.0306 37.9996 91.7437H37.9996L37.9996 91.7536C38.0057 93.4409 37.8592 95.1253 37.562 96.7863C37.4835 97.0788 37.3316 97.3467 37.1205 97.5643C36.904 97.7875 36.6329 97.95 36.3342 98.0358C36.0055 98.1224 35.3456 98.2038 34.4575 98.2686C33.591 98.3318 32.5858 98.3744 31.6249 98.4029C30.6656 98.4314 29.7585 98.4457 29.0908 98.4529C28.7571 98.4564 28.4836 98.4582 28.2939 98.4591C28.199 98.4596 28.1251 98.4598 28.0751 98.4599L28.0183 98.46L28.0041 98.46L28.0006 98.46H27.9998H27.9996H27.9994H27.9986L27.9951 98.46L27.9809 98.46L27.9241 98.4599C27.8741 98.4598 27.8002 98.4596 27.7053 98.4591C27.5155 98.4582 27.2421 98.4564 26.9084 98.4529C26.2407 98.4457 25.3336 98.4314 24.3743 98.4029C23.4134 98.3744 22.4082 98.3318 21.5417 98.2686C20.6498 98.2035 19.9881 98.1217 19.6607 98.0347C19.3665 97.9537 19.0981 97.7984 18.8812 97.5837C18.6741 97.3788 18.5207 97.1264 18.4341 96.8487C18.1343 95.1681 17.9889 93.4635 17.9996 91.7563H17.9996L17.9996 91.7451C17.9912 90.0448 18.1377 88.3474 18.4372 86.6738C18.5157 86.3812 18.6676 86.1133 18.8787 85.8957C19.0952 85.6725 19.3662 85.51 19.6649 85.4242C19.9937 85.3376 20.6536 85.2562 21.5417 85.1914C22.4082 85.1282 23.4134 85.0856 24.3743 85.0571C25.3336 85.0286 26.2407 85.0143 26.9084 85.0071C27.2421 85.0036 27.5155 85.0018 27.7053 85.0009C27.8002 85.0004 27.8741 85.0002 27.9241 85.0001L27.9809 85L27.9951 85L27.9986 85L27.9994 85H27.9996L27.9996 84ZM26.244 87.6107C25.9344 87.4347 25.5546 87.4365 25.2468 87.6156C24.939 87.7946 24.7496 88.1239 24.7496 88.48V95.02C24.7496 95.3761 24.939 95.7053 25.2468 95.8844C25.5546 96.0634 25.9344 96.0653 26.244 95.8892L31.994 92.6192C32.3066 92.4415 32.4996 92.1096 32.4996 91.75C32.4996 91.3904 32.3066 91.0585 31.994 90.8807L26.244 87.6107ZM29.4768 91.75L26.7496 93.3009V90.1991L29.4768 91.75Z" fill="#16171C"/>
</g>
<rect x="0.5" y="0.5" width="55" height="119" rx="4.5" stroke="#9747FF" stroke-dasharray="10 5"/>
<path d="M107 18H104C102.674 18 101.402 18.5268 100.464 19.4645C99.5268 20.4021 99 21.6739 99 23V26H96V30H99V38H103V30H106L107 26H103V23C103 22.7348 103.105 22.4804 103.293 22.2929C103.48 22.1054 103.735 22 104 22H107V18Z" stroke="#FFFEEB" stroke-width="2" stroke-linecap="round" stroke-linejoin="round"/>
<path d="M107 82H104C102.674 82 101.402 82.5268 100.464 83.4645C99.5268 84.4021 99 85.6739 99 87V90H96V94H99V102H103V94H106L107 90H103V87C103 86.7348 103.105 86.4804 103.293 86.2929C103.48 86.1054 103.735 86 104 86H107V82Z" stroke="#16171C" stroke-width="2" stroke-linecap="round" stroke-linejoin="round"/>
<rect x="73.5" y="0.5" width="55" height="119" rx="4.5" stroke="#9747FF" stroke-dasharray="10 5"/>
<path fill-rule="evenodd" clip-rule="evenodd" d="M169 19C166.791 19 165 20.7909 165 23V33C165 35.2091 166.791 37 169 37H179C181.209 37 183 35.2091 183 33V23C183 20.7909 181.209 19 179 19H169ZM163 23C163 19.6863 165.686 17 169 17H179C182.314 17 185 19.6863 185 23V33C185 36.3137 182.314 39 179 39H169C165.686 39 163 36.3137 163 33V23ZM174.483 24.9892C173.859 24.8967 173.222 25.0033 172.662 25.2939C172.101 25.5845 171.647 26.0444 171.364 26.608C171.08 27.1717 170.981 27.8104 171.081 28.4334C171.182 29.0564 171.476 29.6319 171.922 30.0781C172.368 30.5243 172.944 30.8184 173.567 30.9187C174.19 31.0189 174.828 30.9202 175.392 30.6365C175.956 30.3528 176.415 29.8986 176.706 29.3385C176.997 28.7784 177.103 28.1409 177.011 27.5167C176.916 26.88 176.62 26.2906 176.165 25.8355C175.709 25.3803 175.12 25.0837 174.483 24.9892ZM171.74 23.5187C172.674 23.0343 173.736 22.8566 174.777 23.0109C175.838 23.1682 176.82 23.6627 177.579 24.4213C178.337 25.1798 178.832 26.1622 178.989 27.2234C179.143 28.2637 178.966 29.3261 178.481 30.2596C177.997 31.1931 177.231 31.9501 176.291 32.423C175.352 32.8958 174.287 33.0604 173.249 32.8933C172.211 32.7262 171.251 32.236 170.508 31.4923C169.764 30.7487 169.274 29.7895 169.107 28.7511C168.94 27.7128 169.104 26.6482 169.577 25.7088C170.05 24.7694 170.807 24.003 171.74 23.5187ZM179.5 21.5C178.948 21.5 178.5 21.9477 178.5 22.5C178.5 23.0523 178.948 23.5 179.5 23.5H179.51C180.062 23.5 180.51 23.0523 180.51 22.5C180.51 21.9477 180.062 21.5 179.51 21.5H179.5Z" fill="#FFFEEB"/>
<path fill-rule="evenodd" clip-rule="evenodd" d="M169 83C166.791 83 165 84.7909 165 87V97C165 99.2091 166.791 101 169 101H179C181.209 101 183 99.2091 183 97V87C183 84.7909 181.209 83 179 83H169ZM163 87C163 83.6863 165.686 81 169 81H179C182.314 81 185 83.6863 185 87V97C185 100.314 182.314 103 179 103H169C165.686 103 163 100.314 163 97V87ZM174.483 88.9892C173.859 88.8967 173.222 89.0033 172.662 89.2939C172.101 89.5845 171.647 90.0444 171.364 90.608C171.08 91.1717 170.981 91.8104 171.081 92.4334C171.182 93.0564 171.476 93.6319 171.922 94.0781C172.368 94.5243 172.944 94.8184 173.567 94.9187C174.19 95.0189 174.828 94.9202 175.392 94.6365C175.956 94.3528 176.415 93.8986 176.706 93.3385C176.997 92.7784 177.103 92.1409 177.011 91.5167C176.916 90.88 176.62 90.2906 176.165 89.8355C175.709 89.3803 175.12 89.0837 174.483 88.9892ZM171.74 87.5187C172.674 87.0343 173.736 86.8566 174.777 87.0109C175.838 87.1682 176.82 87.6627 177.579 88.4213C178.337 89.1798 178.832 90.1622 178.989 91.2234C179.143 92.2637 178.966 93.3261 178.481 94.2596C177.997 95.1931 177.231 95.9501 176.291 96.423C175.352 96.8958 174.287 97.0604 173.249 96.8933C172.211 96.7262 171.251 96.236 170.508 95.4923C169.764 94.7487 169.274 93.7895 169.107 92.7511C168.94 91.7128 169.104 90.6482 169.577 89.7088C170.05 88.7694 170.807 88.003 171.74 87.5187ZM179.5 85.5C178.948 85.5 178.5 85.9477 178.5 86.5C178.5 87.0523 178.948 87.5 179.5 87.5H179.51C180.062 87.5 180.51 87.0523 180.51 86.5C180.51 85.9477 180.062 85.5 179.51 85.5H179.5Z" fill="#16171C"/>
<rect x="146.5" y="0.5" width="55" height="119" rx="4.5" stroke="#9747FF" stroke-dasharray="10 5"/>
<path d="M258 19C257.042 19.6755 255.982 20.1922 254.86 20.53C254.258 19.8376 253.457 19.3467 252.567 19.124C251.677 18.9012 250.739 18.9572 249.882 19.2845C249.025 19.6118 248.288 20.1944 247.773 20.9538C247.258 21.7131 246.988 22.6124 247 23.53V24.53C245.243 24.5756 243.501 24.1859 241.931 23.3955C240.361 22.6051 239.01 21.4387 238 20C238 20 234 29 243 33C240.941 34.398 238.487 35.099 236 35C245 40 256 35 256 23.5C255.999 23.2215 255.972 22.9436 255.92 22.67C256.941 21.6635 257.661 20.3928 258 19V19Z" stroke="#FFFEEB" stroke-width="2" stroke-linecap="round" stroke-linejoin="round"/>
<path d="M258 83C257.042 83.6755 255.982 84.1922 254.86 84.53C254.258 83.8376 253.457 83.3467 252.567 83.124C251.677 82.9012 250.739 82.9572 249.882 83.2845C249.025 83.6118 248.288 84.1944 247.773 84.9538C247.258 85.7131 246.988 86.6124 247 87.53V88.53C245.243 88.5756 243.501 88.1859 241.931 87.3955C240.361 86.6051 239.01 85.4387 238 84C238 84 234 93 243 97C240.941 98.398 238.487 99.099 236 99C245 104 256 99 256 87.5C255.999 87.2215 255.972 86.9436 255.92 86.67C256.941 85.6635 257.661 84.3928 258 83V83Z" stroke="#16171C" stroke-width="2" stroke-linecap="round" stroke-linejoin="round"/>
<rect x="219.5" y="0.5" width="55" height="119" rx="4.5" stroke="#9747FF" stroke-dasharray="10 5"/>
<path fill-rule="evenodd" clip-rule="evenodd" d="M330.707 17.2929C330.931 17.5164 331.026 17.8194 330.994 18.1108C330.985 18.1925 330.966 18.2733 330.937 18.3512L323.944 38.3304C323.808 38.7174 323.45 38.9825 323.041 38.9992C322.631 39.0159 322.253 38.7808 322.086 38.4062L318.242 29.7576L309.594 25.9138C309.219 25.7473 308.984 25.3689 309.001 24.9593C309.018 24.5496 309.283 24.1916 309.67 24.0562L329.649 17.0635C329.727 17.0341 329.808 17.015 329.891 17.006C329.951 16.9993 330.012 16.9983 330.071 17.0026C330.303 17.0191 330.53 17.1158 330.707 17.2929ZM326.194 20.3915L312.711 25.1106L318.779 27.8073L326.194 20.3915ZM320.193 29.2215L327.609 21.8057L322.889 35.289L320.193 29.2215Z" fill="#FFFEEB"/>
<path fill-rule="evenodd" clip-rule="evenodd" d="M330.707 81.2929C330.931 81.5164 331.026 81.8194 330.994 82.1108C330.985 82.1925 330.966 82.2733 330.937 82.3512L323.944 102.33C323.808 102.717 323.45 102.982 323.041 102.999C322.631 103.016 322.253 102.781 322.086 102.406L318.242 93.7576L309.594 89.9138C309.219 89.7473 308.984 89.3689 309.001 88.9593C309.018 88.5496 309.283 88.1916 309.67 88.0562L329.649 81.0635C329.727 81.0341 329.808 81.015 329.891 81.006C329.951 80.9993 330.012 80.9983 330.071 81.0026C330.303 81.0191 330.53 81.1158 330.707 81.2929ZM326.194 84.3915L312.711 89.1106L318.779 91.8073L326.194 84.3915ZM320.193 93.2215L327.609 85.8057L322.889 99.289L320.193 93.2215Z" fill="#16171C"/>
<rect x="292.5" y="0.5" width="55" height="119" rx="4.5" stroke="#9747FF" stroke-dasharray="10 5"/>
<defs>
<clipPath id="clip0_301_152">
<rect width="24" height="24" fill="white" transform="translate(16 16)"/>
</clipPath>
<clipPath id="clip1_301_152">
<rect width="24" height="24" fill="white" transform="translate(16 80)"/>
</clipPath>
</defs>
</svg>
