<svg width="185" height="55" viewBox="0 0 185 55" fill="none" xmlns="http://www.w3.org/2000/svg">
<path d="M9.08024 1.34419C12.8562 1.34419 15.6829 2.29352 17.5602 4.19219C19.4376 6.06952 20.3762 8.81085 20.3762 12.4162C20.3762 14.7415 19.9176 16.7789 19.0002 18.5282C18.0829 20.2775 16.7496 21.6322 15.0002 22.5922C13.2722 23.5309 11.2029 24.0002 8.79224 24.0002L6.93624 23.9682C5.74157 23.9255 4.86691 23.9042 4.31224 23.9042C2.56291 23.9042 1.24024 23.9362 0.344238 24.0002V23.3602C1.11224 23.3175 1.6669 23.2322 2.00824 23.1042C2.37091 22.9762 2.61624 22.7309 2.74424 22.3682C2.87224 22.0055 2.93624 21.4189 2.93624 20.6082V4.73619C2.93624 3.92552 2.87224 3.33885 2.74424 2.97619C2.61624 2.61352 2.37091 2.36819 2.00824 2.24019C1.6669 2.11219 1.11224 2.02685 0.344238 1.98419V1.34419C1.09091 1.40819 2.12557 1.44019 3.44824 1.44019L6.16824 1.40819C7.61891 1.36552 8.58957 1.34419 9.08024 1.34419ZM8.28024 1.92019C7.61891 1.92019 7.11757 1.99485 6.77624 2.14419C6.45624 2.29352 6.23224 2.56019 6.10424 2.94419C5.97624 3.32819 5.91224 3.90419 5.91224 4.67219V20.6722C5.91224 21.4402 5.97624 22.0162 6.10424 22.4002C6.23224 22.7842 6.45624 23.0509 6.77624 23.2002C7.11757 23.3495 7.62957 23.4242 8.31224 23.4242C10.5736 23.4242 12.3549 23.0189 13.6562 22.2082C14.9576 21.3762 15.8642 20.1709 16.3762 18.5922C16.9096 17.0135 17.1762 14.9975 17.1762 12.5442C17.1762 10.0909 16.8882 8.09619 16.3122 6.56019C15.7362 5.00285 14.7976 3.84019 13.4962 3.07219C12.2162 2.30419 10.4776 1.92019 8.28024 1.92019Z" fill="#CE760B"/>
<path d="M43.793 22.6562C43.3877 23.2322 42.9183 23.6802 42.385 24.0002C41.873 24.2989 41.2543 24.4482 40.529 24.4482C38.737 24.4482 37.6383 23.6375 37.233 22.0162L36.241 18.0162C35.9423 16.8215 35.4943 16.0215 34.897 15.6162C34.321 15.2109 33.457 15.0082 32.305 15.0082H30.481V20.6082C30.481 21.4189 30.545 22.0055 30.673 22.3682C30.801 22.7309 31.0357 22.9762 31.377 23.1042C31.7397 23.2322 32.305 23.3175 33.073 23.3602V24.0002C32.0917 23.9362 30.737 23.9042 29.009 23.9042C27.1743 23.9042 25.809 23.9362 24.913 24.0002V23.3602C25.681 23.3175 26.2357 23.2322 26.577 23.1042C26.9397 22.9762 27.185 22.7309 27.313 22.3682C27.441 22.0055 27.505 21.4189 27.505 20.6082V7.93619C27.505 7.12552 27.441 6.53885 27.313 6.17619C27.185 5.81352 26.9397 5.56819 26.577 5.44019C26.2357 5.31219 25.681 5.22685 24.913 5.18419V4.54419C25.809 4.60819 27.1103 4.64019 28.817 4.64019L32.081 4.60819C32.4437 4.58685 32.8597 4.57619 33.329 4.57619C35.7183 4.57619 37.5423 5.02419 38.801 5.92019C40.081 6.81619 40.721 7.97886 40.721 9.40819C40.721 10.6455 40.2197 11.7762 39.217 12.8002C38.2357 13.8242 36.6143 14.4749 34.353 14.7522C34.7797 14.7949 35.1423 14.8375 35.441 14.8802C36.5717 15.0509 37.4677 15.3922 38.129 15.9042C38.7903 16.4162 39.2597 17.2375 39.537 18.3682L40.241 21.2802C40.4117 22.0269 40.593 22.5602 40.785 22.8802C40.9983 23.1789 41.265 23.3282 41.585 23.3282C42.1183 23.3282 42.705 22.9655 43.345 22.2402L43.793 22.6562ZM32.529 5.18419C31.953 5.18419 31.5157 5.25886 31.217 5.40819C30.9397 5.55752 30.7477 5.82419 30.641 6.20819C30.5343 6.59219 30.481 7.16819 30.481 7.93619V14.3682H32.625C34.5023 14.3682 35.7823 13.9735 36.465 13.1842C37.169 12.3735 37.521 11.2322 37.521 9.76019C37.521 8.22419 37.1263 7.08285 36.337 6.33619C35.569 5.56819 34.2997 5.18419 32.529 5.18419Z" fill="#CE760B"/>
<path d="M62.2257 20.2242C62.2257 21.3335 62.3004 22.5922 62.4497 24.0002C61.0631 23.9362 58.7271 23.9042 55.4417 23.9042C51.4951 23.9042 48.5084 23.9362 46.4817 24.0002V23.3602C47.2497 23.3175 47.8044 23.2322 48.1457 23.1042C48.5084 22.9762 48.7537 22.7309 48.8817 22.3682C49.0097 22.0055 49.0737 21.4189 49.0737 20.6082V7.93619C49.0737 7.12552 49.0097 6.53885 48.8817 6.17619C48.7537 5.81352 48.5084 5.56819 48.1457 5.44019C47.8044 5.31219 47.2497 5.22685 46.4817 5.18419V4.54419C48.5084 4.60819 51.4951 4.64019 55.4417 4.64019C58.4284 4.64019 60.5511 4.60819 61.8097 4.54419C61.6604 5.82419 61.5857 6.97619 61.5857 8.00019C61.5857 8.83219 61.6177 9.49352 61.6817 9.98419H60.9457C60.7964 8.23485 60.4231 7.01885 59.8257 6.33619C59.2497 5.63219 58.3004 5.28019 56.9777 5.28019H54.6417C53.8737 5.28019 53.3084 5.34419 52.9457 5.47219C52.6044 5.57886 52.3697 5.81352 52.2417 6.17619C52.1137 6.53885 52.0497 7.12552 52.0497 7.93619V13.8882H54.7057C55.3884 13.8882 55.9111 13.7175 56.2737 13.3762C56.6364 13.0135 56.8817 12.6295 57.0097 12.2242C57.1377 11.7975 57.2551 11.2642 57.3617 10.6242H58.0977C58.0337 11.3495 58.0017 12.1389 58.0017 12.9922V14.2082C58.0017 15.0402 58.0657 16.2349 58.1937 17.7922H57.4577C57.3297 16.7682 57.0844 15.9682 56.7217 15.3922C56.3591 14.8162 55.6871 14.5282 54.7057 14.5282H52.0497V20.6082C52.0497 21.4189 52.1137 22.0055 52.2417 22.3682C52.3697 22.7309 52.6044 22.9762 52.9457 23.1042C53.3084 23.2109 53.8737 23.2642 54.6417 23.2642H56.9777C58.0444 23.2642 58.8871 23.0935 59.5057 22.7522C60.1244 22.4109 60.5937 21.8669 60.9137 21.1202C61.2337 20.3522 61.4577 19.2855 61.5857 17.9202H62.3217C62.2577 18.4962 62.2257 19.2642 62.2257 20.2242Z" fill="#CE760B"/>
<path d="M83.369 21.3122C83.945 22.6349 84.681 23.3175 85.577 23.3602V24.0002C84.7237 23.9362 83.5823 23.9042 82.153 23.9042C80.3183 23.9042 78.953 23.9362 78.057 24.0002V23.3602C78.8463 23.3175 79.4223 23.2109 79.785 23.0402C80.169 22.8695 80.361 22.5815 80.361 22.1762C80.361 21.8349 80.2117 21.3335 79.913 20.6722L78.281 17.0242H70.505L69.417 19.4242C69.0543 20.2562 68.873 20.9389 68.873 21.4722C68.873 22.0269 69.065 22.4642 69.449 22.7842C69.8543 23.0829 70.4943 23.2749 71.369 23.3602V24.0002C70.729 23.9362 69.7583 23.9042 68.457 23.9042C67.1557 23.9042 66.2277 23.9362 65.673 24.0002V23.3602C66.249 23.2109 66.7397 22.8909 67.145 22.4002C67.5503 21.8882 67.9343 21.2162 68.297 20.3842L75.369 4.38419H75.881L83.369 21.3122ZM78.025 16.3842L74.409 8.25619L70.761 16.3842H78.025Z" fill="#CE760B"/>
<path d="M112.976 5.18419C112.208 5.22685 111.642 5.31219 111.28 5.44019C110.938 5.56819 110.704 5.81352 110.576 6.17619C110.448 6.53885 110.384 7.12552 110.384 7.93619V20.6082C110.384 21.4189 110.448 22.0055 110.576 22.3682C110.704 22.7309 110.938 22.9762 111.28 23.1042C111.642 23.2322 112.208 23.3175 112.976 23.3602V24.0002C111.994 23.9362 110.64 23.9042 108.912 23.9042C107.077 23.9042 105.712 23.9362 104.816 24.0002V23.3602C105.584 23.3175 106.138 23.2322 106.48 23.1042C106.842 22.9762 107.088 22.7309 107.216 22.3682C107.344 22.0055 107.408 21.4189 107.408 20.6082V6.56019L99.6957 24.1602H99.1837L91.7597 6.59219V20.2882C91.7597 21.1202 91.8237 21.7389 91.9517 22.1442C92.1011 22.5495 92.3784 22.8482 92.7837 23.0402C93.1891 23.2109 93.8184 23.3175 94.6717 23.3602V24.0002C93.9037 23.9362 92.8157 23.9042 91.4077 23.9042C90.1277 23.9042 89.1357 23.9362 88.4317 24.0002V23.3602C89.1784 23.3175 89.7331 23.2109 90.0957 23.0402C90.4584 22.8482 90.7037 22.5495 90.8317 22.1442C90.9597 21.7175 91.0237 21.0989 91.0237 20.2882V7.93619C91.0237 7.12552 90.9597 6.53885 90.8317 6.17619C90.7037 5.81352 90.4584 5.56819 90.0957 5.44019C89.7544 5.31219 89.1997 5.22685 88.4317 5.18419V4.54419C89.1357 4.60819 90.1277 4.64019 91.4077 4.64019C92.4317 4.64019 93.3384 4.60819 94.1277 4.54419L100.56 20.1282L107.408 4.64019H108.912C110.64 4.64019 111.994 4.60819 112.976 4.54419V5.18419Z" fill="#CE760B"/>
<path d="M133.667 0.992188C134.606 0.992188 135.342 1.09885 135.875 1.31219C136.43 1.50419 136.995 1.79219 137.571 2.17619C138.041 2.47485 138.403 2.62419 138.659 2.62419C138.851 2.62419 139.001 2.51752 139.107 2.30419C139.214 2.06952 139.299 1.70686 139.363 1.21619H140.099C139.993 2.45352 139.939 4.62952 139.939 7.74419H139.203C139.075 6.01619 138.574 4.56552 137.699 3.39219C136.846 2.19752 135.598 1.60019 133.955 1.60019C132.803 1.60019 131.865 1.95219 131.139 2.65619C130.414 3.33885 130.051 4.22419 130.051 5.31219C130.051 6.12285 130.233 6.82686 130.595 7.42419C130.979 8.02152 131.459 8.53352 132.035 8.96019C132.611 9.38686 133.433 9.93085 134.499 10.5922L135.427 11.1682C136.771 12.0002 137.827 12.7362 138.595 13.3762C139.385 13.9949 140.014 14.7095 140.483 15.5202C140.953 16.3309 141.187 17.2802 141.187 18.3682C141.187 20.3095 140.547 21.8135 139.267 22.8802C137.987 23.9255 136.366 24.4482 134.403 24.4482C133.379 24.4482 132.537 24.3415 131.875 24.1282C131.235 23.9149 130.617 23.6269 130.019 23.2642C129.55 22.9655 129.187 22.8162 128.931 22.8162C128.739 22.8162 128.59 22.9335 128.483 23.1682C128.377 23.3815 128.291 23.7335 128.227 24.2242H127.491C127.577 23.0509 127.619 20.4909 127.619 16.5442H128.355C128.505 18.6989 129.038 20.4482 129.955 21.7922C130.873 23.1362 132.281 23.8082 134.179 23.8082C135.331 23.8082 136.313 23.4562 137.123 22.7522C137.934 22.0269 138.339 20.9602 138.339 19.5522C138.339 18.3575 137.934 17.3442 137.123 16.5122C136.334 15.6802 135.075 14.7415 133.347 13.6962C132.089 12.9282 131.065 12.2455 130.275 11.6482C129.507 11.0509 128.878 10.3362 128.387 9.50419C127.897 8.65085 127.651 7.65885 127.651 6.52819C127.651 4.73619 128.227 3.37085 129.379 2.43219C130.531 1.47219 131.961 0.992188 133.667 0.992188Z" fill="#CE760B"/>
<path d="M162.468 21.4082C163.215 22.3469 164.047 22.9975 164.964 23.3602V24.0002C163.94 23.9362 162.746 23.9042 161.38 23.9042C159.93 23.9042 158.575 23.9362 157.316 24.0002V23.3602C157.999 23.3389 158.49 23.2855 158.788 23.2002C159.087 23.0935 159.236 22.9442 159.236 22.7522C159.236 22.5389 159.098 22.2615 158.82 21.9202L154.564 16.0002C154.138 15.4029 153.69 14.9762 153.22 14.7202C152.751 14.4429 152.1 14.2935 151.268 14.2722V20.6082C151.268 21.4189 151.332 22.0055 151.46 22.3682C151.589 22.7309 151.823 22.9762 152.164 23.1042C152.527 23.2322 153.092 23.3175 153.86 23.3602V24.0002C152.879 23.9362 151.524 23.9042 149.796 23.9042C147.962 23.9042 146.596 23.9362 145.7 24.0002V23.3602C146.468 23.3175 147.023 23.2322 147.364 23.1042C147.727 22.9762 147.972 22.7309 148.1 22.3682C148.229 22.0055 148.292 21.4189 148.292 20.6082V7.93619C148.292 7.12552 148.229 6.53885 148.1 6.17619C147.972 5.81352 147.727 5.56819 147.364 5.44019C147.023 5.31219 146.468 5.22685 145.7 5.18419V4.54419C146.596 4.60819 147.962 4.64019 149.796 4.64019C151.503 4.64019 152.858 4.60819 153.86 4.54419V5.18419C153.092 5.22685 152.527 5.31219 152.164 5.44019C151.823 5.56819 151.589 5.81352 151.46 6.17619C151.332 6.53885 151.268 7.12552 151.268 7.93619V13.7282C152.015 13.6855 152.719 13.5149 153.38 13.2162C154.042 12.8962 154.767 12.3522 155.556 11.5842L159.364 7.68019C159.919 7.16819 160.196 6.68819 160.196 6.24019C160.196 5.92019 160.036 5.66419 159.716 5.47219C159.396 5.28019 158.927 5.17352 158.308 5.15219V4.54419C159.46 4.60819 160.719 4.64019 162.084 4.64019C163.002 4.64019 163.759 4.60819 164.356 4.54419V5.15219C163.588 5.30152 162.948 5.52552 162.436 5.82419C161.924 6.12285 161.263 6.66685 160.452 7.45619L155.428 12.4802L162.468 21.4082Z" fill="#CE760B"/>
<path d="M182.446 4.67219C183.662 4.67219 184.483 4.62952 184.91 4.54419V5.21619C184.547 5.30152 184.217 5.50419 183.918 5.82419C183.619 6.14419 183.267 6.66685 182.862 7.39219L177.838 16.3842V20.6082C177.838 21.4189 177.902 22.0055 178.03 22.3682C178.158 22.7309 178.393 22.9762 178.734 23.1042C179.097 23.2322 179.662 23.3175 180.43 23.3602V24.0002C179.449 23.9362 178.094 23.9042 176.366 23.9042C174.531 23.9042 173.166 23.9362 172.27 24.0002V23.3602C173.038 23.3175 173.593 23.2322 173.934 23.1042C174.297 22.9762 174.542 22.7309 174.67 22.3682C174.798 22.0055 174.862 21.4189 174.862 20.6082V17.2802L168.686 7.00819C168.281 6.32552 167.939 5.87752 167.662 5.66419C167.406 5.42952 167.129 5.28019 166.83 5.21619V4.54419C168.195 4.62952 169.134 4.67219 169.646 4.67219C171.118 4.67219 172.611 4.62952 174.126 4.54419V5.21619C173.401 5.21619 172.846 5.28019 172.462 5.40819C172.078 5.51485 171.886 5.77085 171.886 6.17619C171.886 6.53885 172.067 7.04019 172.43 7.68019L177.262 15.7442L181.23 8.76819C181.699 7.91485 181.934 7.23219 181.934 6.72019C181.934 5.82419 181.198 5.32285 179.726 5.21619V4.54419C180.515 4.62952 181.422 4.67219 182.446 4.67219Z" fill="#CE760B"/>
<path d="M7.19224 30.9922C8.13091 30.9922 8.86691 31.0989 9.40024 31.3122C9.95491 31.5042 10.5202 31.7922 11.0962 32.1762C11.5656 32.4749 11.9282 32.6242 12.1842 32.6242C12.3762 32.6242 12.5256 32.5175 12.6322 32.3042C12.7389 32.0695 12.8242 31.7069 12.8882 31.2162H13.6242C13.5176 32.4535 13.4642 34.6295 13.4642 37.7442H12.7282C12.6002 36.0162 12.0989 34.5655 11.2242 33.3922C10.3709 32.1975 9.12291 31.6002 7.48024 31.6002C6.32824 31.6002 5.38957 31.9522 4.66424 32.6562C3.9389 33.3389 3.57624 34.2242 3.57624 35.3122C3.57624 36.1229 3.75757 36.8269 4.12024 37.4242C4.50424 38.0215 4.98424 38.5335 5.56024 38.9602C6.13624 39.3869 6.95757 39.9309 8.02424 40.5922L8.95224 41.1682C10.2962 42.0002 11.3522 42.7362 12.1202 43.3762C12.9096 43.9949 13.5389 44.7095 14.0082 45.5202C14.4776 46.3309 14.7122 47.2802 14.7122 48.3682C14.7122 50.3095 14.0722 51.8135 12.7922 52.8802C11.5122 53.9255 9.89091 54.4482 7.92824 54.4482C6.90424 54.4482 6.06157 54.3415 5.40024 54.1282C4.76024 53.9149 4.14157 53.6269 3.54424 53.2642C3.0749 52.9655 2.71224 52.8162 2.45624 52.8162C2.26424 52.8162 2.1149 52.9335 2.00824 53.1682C1.90157 53.3815 1.81624 53.7335 1.75224 54.2242H1.01624C1.10157 53.0509 1.14424 50.4909 1.14424 46.5442H1.88024C2.02957 48.6989 2.5629 50.4482 3.48024 51.7922C4.39757 53.1362 5.80557 53.8082 7.70424 53.8082C8.85624 53.8082 9.83757 53.4562 10.6482 52.7522C11.4589 52.0269 11.8642 50.9602 11.8642 49.5522C11.8642 48.3575 11.4589 47.3442 10.6482 46.5122C9.85891 45.6802 8.60024 44.7415 6.87224 43.6962C5.61357 42.9282 4.58957 42.2455 3.80024 41.6482C3.03224 41.0508 2.4029 40.3362 1.91224 39.5042C1.42157 38.6509 1.17624 37.6589 1.17624 36.5282C1.17624 34.7362 1.75224 33.3709 2.90424 32.4322C4.05624 31.4722 5.48557 30.9922 7.19224 30.9922Z" fill="#CE760B"/>
<path d="M36.9855 34.5442C36.8362 35.9522 36.7615 37.2109 36.7615 38.3202C36.7615 39.4295 36.7935 40.3042 36.8575 40.9442H36.1215C35.9935 39.4509 35.7908 38.3095 35.5135 37.5202C35.2362 36.7309 34.7882 36.1655 34.1695 35.8242C33.5508 35.4615 32.6655 35.2802 31.5135 35.2802H29.4655V50.2882C29.4655 51.1842 29.5508 51.8349 29.7215 52.2402C29.8922 52.6455 30.1908 52.9229 30.6175 53.0722C31.0442 53.2215 31.7375 53.3175 32.6975 53.3602V54.0002C31.5882 53.9362 30.0202 53.9042 27.9935 53.9042C25.8602 53.9042 24.2815 53.9362 23.2575 54.0002V53.3602C24.2175 53.3175 24.9108 53.2215 25.3375 53.0722C25.7642 52.9229 26.0628 52.6455 26.2335 52.2402C26.4042 51.8349 26.4895 51.1842 26.4895 50.2882V35.2802H24.4415C23.2895 35.2802 22.4042 35.4615 21.7855 35.8242C21.1668 36.1655 20.7188 36.7309 20.4415 37.5202C20.1642 38.3095 19.9615 39.4509 19.8335 40.9442H19.0975C19.1615 40.2615 19.1935 39.3869 19.1935 38.3202C19.1935 37.2109 19.1188 35.9522 18.9695 34.5442C20.7402 34.6082 23.7482 34.6402 27.9935 34.6402C32.2175 34.6402 35.2148 34.6082 36.9855 34.5442Z" fill="#CE760B"/>
<path d="M59.925 35.1842C59.1783 35.2269 58.6237 35.3442 58.261 35.5362C57.8983 35.7069 57.653 36.0055 57.525 36.4322C57.397 36.8375 57.333 37.4455 57.333 38.2562V45.3282C57.333 46.8002 57.2263 48.0589 57.013 49.1042C56.821 50.1282 56.4903 51.0242 56.021 51.7922C55.509 52.6029 54.7623 53.2535 53.781 53.7442C52.821 54.2135 51.7223 54.4482 50.485 54.4482C48.2877 54.4482 46.6023 53.9789 45.429 53.0402C44.4903 52.2082 43.861 51.2589 43.541 50.1922C43.221 49.1255 43.061 47.5362 43.061 45.4242V37.9362C43.061 37.1255 42.997 36.5389 42.869 36.1762C42.741 35.8135 42.4957 35.5682 42.133 35.4402C41.7917 35.3122 41.237 35.2269 40.469 35.1842V34.5442C41.365 34.6082 42.7303 34.6402 44.565 34.6402C46.2717 34.6402 47.6263 34.6082 48.629 34.5442V35.1842C47.861 35.2269 47.2957 35.3122 46.933 35.4402C46.5917 35.5682 46.357 35.8135 46.229 36.1762C46.101 36.5389 46.037 37.1255 46.037 37.9362V45.9682C46.037 47.5469 46.1437 48.8589 46.357 49.9042C46.5703 50.9282 47.0183 51.7602 47.701 52.4002C48.405 53.0189 49.429 53.3282 50.773 53.3282C52.9063 53.3282 54.4103 52.6562 55.285 51.3122C56.1597 49.9682 56.597 48.0909 56.597 45.6802V38.2562C56.597 37.1042 56.3837 36.3149 55.957 35.8882C55.5517 35.4615 54.7943 35.2269 53.685 35.1842V34.5442C54.453 34.6082 55.541 34.6402 56.949 34.6402C58.229 34.6402 59.221 34.6082 59.925 34.5442V35.1842Z" fill="#CE760B"/>
<path d="M72.4115 34.5442C75.7395 34.5442 78.2355 35.3549 79.8995 36.9762C81.5848 38.5762 82.4275 40.9229 82.4275 44.0162C82.4275 46.0215 82.0222 47.7815 81.2115 49.2962C80.4008 50.7895 79.2168 51.9522 77.6595 52.7842C76.1235 53.5949 74.2782 54.0002 72.1235 54.0002L70.2675 53.9682C69.0728 53.9255 68.1982 53.9042 67.6435 53.9042C65.8941 53.9042 64.5715 53.9362 63.6755 54.0002V53.3602C64.4435 53.3175 64.9982 53.2322 65.3395 53.1042C65.7021 52.9762 65.9475 52.7309 66.0755 52.3682C66.2035 52.0055 66.2675 51.4189 66.2675 50.6082V37.9362C66.2675 37.1255 66.2035 36.5389 66.0755 36.1762C65.9475 35.8135 65.7021 35.5682 65.3395 35.4402C64.9982 35.3122 64.4435 35.2269 63.6755 35.1842V34.5442C64.4221 34.6082 65.4568 34.6402 66.7795 34.6402L69.4995 34.6082C70.9502 34.5655 71.9208 34.5442 72.4115 34.5442ZM71.6115 35.1202C70.9502 35.1202 70.4488 35.1949 70.1075 35.3442C69.7875 35.4935 69.5635 35.7602 69.4355 36.1442C69.3075 36.5282 69.2435 37.1042 69.2435 37.8722V50.6722C69.2435 51.4402 69.3075 52.0162 69.4355 52.4002C69.5635 52.7842 69.7875 53.0509 70.1075 53.2002C70.4488 53.3495 70.9608 53.4242 71.6435 53.4242C73.5848 53.4242 75.1102 53.0829 76.2195 52.4002C77.3288 51.6962 78.1075 50.6722 78.5555 49.3282C79.0035 47.9842 79.2275 46.2562 79.2275 44.1442C79.2275 41.0295 78.6515 38.7469 77.4995 37.2962C76.3475 35.8455 74.3848 35.1202 71.6115 35.1202Z" fill="#CE760B"/>
<path d="M94.998 35.1842C94.23 35.2269 93.6646 35.3122 93.302 35.4402C92.9607 35.5682 92.726 35.8135 92.598 36.1762C92.47 36.5389 92.406 37.1255 92.406 37.9362V50.6082C92.406 51.4189 92.47 52.0055 92.598 52.3682C92.726 52.7309 92.9607 52.9762 93.302 53.1042C93.6646 53.2322 94.23 53.3175 94.998 53.3602V54.0002C94.0167 53.9362 92.662 53.9042 90.934 53.9042C89.0993 53.9042 87.734 53.9362 86.838 54.0002V53.3602C87.606 53.3175 88.1607 53.2322 88.502 53.1042C88.8647 52.9762 89.11 52.7309 89.238 52.3682C89.366 52.0055 89.43 51.4189 89.43 50.6082V37.9362C89.43 37.1255 89.366 36.5389 89.238 36.1762C89.11 35.8135 88.8647 35.5682 88.502 35.4402C88.1607 35.3122 87.606 35.2269 86.838 35.1842V34.5442C87.734 34.6082 89.0993 34.6402 90.934 34.6402C92.6407 34.6402 93.9953 34.6082 94.998 34.5442V35.1842Z" fill="#CE760B"/>
<path d="M109.208 34.0962C111.171 34.0962 112.888 34.4909 114.36 35.2802C115.854 36.0482 117.006 37.1895 117.816 38.7042C118.627 40.1975 119.032 41.9895 119.032 44.0802C119.032 46.1282 118.606 47.9415 117.752 49.5202C116.92 51.0775 115.758 52.2935 114.264 53.1682C112.771 54.0215 111.075 54.4482 109.176 54.4482C107.214 54.4482 105.486 54.0642 103.992 53.2962C102.52 52.5069 101.379 51.3655 100.568 49.8722C99.7578 48.3575 99.3525 46.5549 99.3525 44.4642C99.3525 42.4162 99.7685 40.6135 100.6 39.0562C101.454 37.4775 102.627 36.2615 104.12 35.4082C105.614 34.5335 107.31 34.0962 109.208 34.0962ZM109.08 34.6722C107.779 34.6722 106.627 35.0882 105.624 35.9202C104.643 36.7309 103.886 37.8722 103.352 39.3442C102.819 40.7949 102.552 42.4589 102.552 44.3362C102.552 46.2349 102.851 47.9095 103.448 49.3602C104.046 50.8109 104.856 51.9309 105.88 52.7202C106.904 53.4882 108.046 53.8722 109.304 53.8722C110.606 53.8722 111.747 53.4669 112.728 52.6562C113.731 51.8242 114.499 50.6829 115.032 49.2322C115.566 47.7602 115.832 46.0855 115.832 44.2082C115.832 42.3095 115.534 40.6349 114.936 39.1842C114.339 37.7335 113.528 36.6242 112.504 35.8562C111.48 35.0669 110.339 34.6722 109.08 34.6722Z" fill="#CE760B"/>
</svg>
